<svg width="512" height="512" viewBox="0 0 512 512" fill="none" xmlns="http://www.w3.org/2000/svg">
<path d="M176 416V480V416ZM80 32H272C280.487 32 288.626 35.3714 294.627 41.3726C300.629 47.3737 304 55.5131 304 64V476C304 477.061 303.579 478.078 302.828 478.828C302.078 479.579 301.061 480 300 480H48V64C48 55.5131 51.3714 47.3737 57.3726 41.3726C63.3737 35.3714 71.5131 32 80 32V32ZM320 192H432C440.487 192 448.626 195.371 454.627 201.373C460.629 207.374 464 215.513 464 224V480H304V208C304 203.757 305.686 199.687 308.686 196.686C311.687 193.686 315.757 192 320 192Z" stroke="#5B5B5B" stroke-width="32" stroke-linecap="round" stroke-linejoin="round"/>
<path d="M98.08 431.87C94.7663 432.303 91.4001 431.688 88.4537 430.111C85.5074 428.534 83.129 426.074 81.6521 423.076C80.1753 420.078 79.6743 416.693 80.2194 413.395C80.7645 410.098 82.3283 407.054 84.6914 404.691C87.0545 402.328 90.0982 400.764 93.3954 400.219C96.6926 399.674 100.078 400.175 103.076 401.652C106.074 403.129 108.534 405.507 110.111 408.454C111.688 411.4 112.303 414.766 111.87 418.08C111.413 421.577 109.813 424.825 107.319 427.319C104.825 429.813 101.577 431.413 98.08 431.87ZM98.08 351.87C94.7663 352.303 91.4001 351.688 88.4537 350.111C85.5074 348.534 83.129 346.074 81.6521 343.076C80.1753 340.078 79.6743 336.693 80.2194 333.395C80.7645 330.098 82.3283 327.054 84.6914 324.691C87.0545 322.328 90.0982 320.764 93.3954 320.219C96.6926 319.674 100.078 320.175 103.076 321.652C106.074 323.129 108.534 325.507 110.111 328.454C111.688 331.4 112.303 334.766 111.87 338.08C111.413 341.577 109.813 344.825 107.319 347.319C104.825 349.813 101.577 351.413 98.08 351.87ZM98.08 271.87C94.7663 272.303 91.4001 271.688 88.4537 270.111C85.5074 268.534 83.129 266.074 81.6521 263.076C80.1753 260.078 79.6743 256.693 80.2194 253.395C80.7645 250.098 82.3283 247.054 84.6914 244.691C87.0545 242.328 90.0982 240.764 93.3954 240.219C96.6926 239.674 100.078 240.175 103.076 241.652C106.074 243.129 108.534 245.507 110.111 248.454C111.688 251.4 112.303 254.766 111.87 258.08C111.413 261.577 109.813 264.825 107.319 267.319C104.825 269.813 101.577 271.413 98.08 271.87ZM98.08 191.87C94.7663 192.303 91.4001 191.688 88.4537 190.111C85.5074 188.534 83.129 186.074 81.6521 183.076C80.1753 180.078 79.6743 176.693 80.2194 173.395C80.7645 170.098 82.3283 167.054 84.6914 164.691C87.0545 162.328 90.0982 160.764 93.3954 160.219C96.6926 159.674 100.078 160.175 103.076 161.652C106.074 163.129 108.534 165.507 110.111 168.454C111.688 171.4 112.303 174.766 111.87 178.08C111.413 181.577 109.813 184.825 107.319 187.319C104.825 189.813 101.577 191.413 98.08 191.87ZM98.08 111.87C94.7663 112.303 91.4001 111.688 88.4537 110.111C85.5074 108.534 83.129 106.073 81.6521 103.076C80.1753 100.078 79.6743 96.6926 80.2194 93.3954C80.7645 90.0982 82.3283 87.0545 84.6914 84.6914C87.0545 82.3283 90.0982 80.7644 93.3954 80.2193C96.6926 79.6743 100.078 80.1753 103.076 81.6521C106.074 83.1289 108.534 85.5074 110.111 88.4537C111.688 91.4 112.303 94.7663 111.87 98.08C111.413 101.577 109.813 104.825 107.319 107.319C104.825 109.813 101.577 111.413 98.08 111.87ZM178.08 351.87C174.766 352.303 171.4 351.688 168.454 350.111C165.507 348.534 163.129 346.074 161.652 343.076C160.175 340.078 159.674 336.693 160.219 333.395C160.764 330.098 162.328 327.054 164.691 324.691C167.055 322.328 170.098 320.764 173.395 320.219C176.693 319.674 180.078 320.175 183.076 321.652C186.074 323.129 188.534 325.507 190.111 328.454C191.688 331.4 192.303 334.766 191.87 338.08C191.413 341.577 189.813 344.825 187.319 347.319C184.825 349.813 181.577 351.413 178.08 351.87ZM178.08 271.87C174.766 272.303 171.4 271.688 168.454 270.111C165.507 268.534 163.129 266.074 161.652 263.076C160.175 260.078 159.674 256.693 160.219 253.395C160.764 250.098 162.328 247.054 164.691 244.691C167.055 242.328 170.098 240.764 173.395 240.219C176.693 239.674 180.078 240.175 183.076 241.652C186.074 243.129 188.534 245.507 190.111 248.454C191.688 251.4 192.303 254.766 191.87 258.08C191.413 261.577 189.813 264.825 187.319 267.319C184.825 269.813 181.577 271.413 178.08 271.87ZM178.08 191.87C174.766 192.303 171.4 191.688 168.454 190.111C165.507 188.534 163.129 186.074 161.652 183.076C160.175 180.078 159.674 176.693 160.219 173.395C160.764 170.098 162.328 167.054 164.691 164.691C167.055 162.328 170.098 160.764 173.395 160.219C176.693 159.674 180.078 160.175 183.076 161.652C186.074 163.129 188.534 165.507 190.111 168.454C191.688 171.4 192.303 174.766 191.87 178.08C191.413 181.577 189.813 184.825 187.319 187.319C184.825 189.813 181.577 191.413 178.08 191.87ZM178.08 111.87C174.766 112.303 171.4 111.688 168.454 110.111C165.507 108.534 163.129 106.073 161.652 103.076C160.175 100.078 159.674 96.6926 160.219 93.3954C160.764 90.0982 162.328 87.0545 164.691 84.6914C167.055 82.3283 170.098 80.7644 173.395 80.2193C176.693 79.6743 180.078 80.1753 183.076 81.6521C186.074 83.1289 188.534 85.5074 190.111 88.4537C191.688 91.4 192.303 94.7663 191.87 98.08C191.413 101.577 189.813 104.825 187.319 107.319C184.825 109.813 181.577 111.413 178.08 111.87ZM258.08 431.87C254.766 432.303 251.4 431.688 248.454 430.111C245.507 428.534 243.129 426.074 241.652 423.076C240.175 420.078 239.674 416.693 240.219 413.395C240.764 410.098 242.328 407.054 244.691 404.691C247.055 402.328 250.098 400.764 253.395 400.219C256.693 399.674 260.078 400.175 263.076 401.652C266.074 403.129 268.534 405.507 270.111 408.454C271.688 411.4 272.303 414.766 271.87 418.08C271.413 421.577 269.813 424.825 267.319 427.319C264.825 429.813 261.577 431.413 258.08 431.87ZM258.08 351.87C254.766 352.303 251.4 351.688 248.454 350.111C245.507 348.534 243.129 346.074 241.652 343.076C240.175 340.078 239.674 336.693 240.219 333.395C240.764 330.098 242.328 327.054 244.691 324.691C247.055 322.328 250.098 320.764 253.395 320.219C256.693 319.674 260.078 320.175 263.076 321.652C266.074 323.129 268.534 325.507 270.111 328.454C271.688 331.4 272.303 334.766 271.87 338.08C271.413 341.577 269.813 344.825 267.319 347.319C264.825 349.813 261.577 351.413 258.08 351.87ZM258.08 271.87C254.766 272.303 251.4 271.688 248.454 270.111C245.507 268.534 243.129 266.074 241.652 263.076C240.175 260.078 239.674 256.693 240.219 253.395C240.764 250.098 242.328 247.054 244.691 244.691C247.055 242.328 250.098 240.764 253.395 240.219C256.693 239.674 260.078 240.175 263.076 241.652C266.074 243.129 268.534 245.507 270.111 248.454C271.688 251.4 272.303 254.766 271.87 258.08C271.413 261.577 269.813 264.825 267.319 267.319C264.825 269.813 261.577 271.413 258.08 271.87Z" fill="#5B5B5B"/>
<path d="M267.335 187.327C273.564 181.098 273.538 170.973 267.278 164.713C261.018 158.453 250.894 158.428 244.665 164.657C238.436 170.886 238.461 181.01 244.722 187.27C250.982 193.53 261.106 193.556 267.335 187.327Z" fill="#5B5B5B"/>
<path d="M258.08 111.87C254.766 112.303 251.4 111.688 248.454 110.111C245.507 108.534 243.129 106.073 241.652 103.076C240.175 100.078 239.674 96.6926 240.219 93.3954C240.764 90.0982 242.328 87.0545 244.691 84.6914C247.055 82.3283 250.098 80.7644 253.395 80.2193C256.693 79.6743 260.078 80.1753 263.076 81.6521C266.074 83.1289 268.534 85.5074 270.111 88.4537C271.688 91.4 272.303 94.7663 271.87 98.08C271.413 101.577 269.813 104.825 267.319 107.319C264.825 109.813 261.577 111.413 258.08 111.87ZM400 400C396.836 400 393.742 400.938 391.111 402.696C388.48 404.455 386.429 406.953 385.218 409.877C384.007 412.801 383.69 416.018 384.307 419.121C384.925 422.225 386.449 425.076 388.686 427.314C390.924 429.551 393.775 431.075 396.879 431.693C399.982 432.31 403.199 431.993 406.123 430.782C409.047 429.571 411.545 427.52 413.304 424.889C415.062 422.258 416 419.164 416 416C416 411.757 414.314 407.687 411.314 404.686C408.313 401.686 404.243 400 400 400ZM400 320C396.836 320 393.742 320.938 391.111 322.696C388.48 324.455 386.429 326.953 385.218 329.877C384.007 332.801 383.69 336.018 384.307 339.121C384.925 342.225 386.449 345.076 388.686 347.314C390.924 349.551 393.775 351.075 396.879 351.693C399.982 352.31 403.199 351.993 406.123 350.782C409.047 349.571 411.545 347.52 413.304 344.889C415.062 342.258 416 339.164 416 336C416 331.757 414.314 327.687 411.314 324.686C408.313 321.686 404.243 320 400 320ZM400 240C396.836 240 393.742 240.938 391.111 242.696C388.48 244.455 386.429 246.953 385.218 249.877C384.007 252.801 383.69 256.018 384.307 259.121C384.925 262.225 386.449 265.076 388.686 267.314C390.924 269.551 393.775 271.075 396.879 271.693C399.982 272.31 403.199 271.993 406.123 270.782C409.047 269.571 411.545 267.52 413.304 264.889C415.062 262.258 416 259.164 416 256C416 251.757 414.314 247.687 411.314 244.686C408.313 241.686 404.243 240 400 240ZM336 400C332.836 400 329.742 400.938 327.111 402.696C324.48 404.455 322.429 406.953 321.218 409.877C320.007 412.801 319.69 416.018 320.307 419.121C320.925 422.225 322.449 425.076 324.686 427.314C326.924 429.551 329.775 431.075 332.879 431.693C335.982 432.31 339.199 431.993 342.123 430.782C345.047 429.571 347.545 427.52 349.304 424.889C351.062 422.258 352 419.164 352 416C352 411.757 350.314 407.687 347.314 404.686C344.313 401.686 340.243 400 336 400ZM336 320C332.836 320 329.742 320.938 327.111 322.696C324.48 324.455 322.429 326.953 321.218 329.877C320.007 332.801 319.69 336.018 320.307 339.121C320.925 342.225 322.449 345.076 324.686 347.314C326.924 349.551 329.775 351.075 332.879 351.693C335.982 352.31 339.199 351.993 342.123 350.782C345.047 349.571 347.545 347.52 349.304 344.889C351.062 342.258 352 339.164 352 336C352 331.757 350.314 327.687 347.314 324.686C344.313 321.686 340.243 320 336 320ZM336 240C332.836 240 329.742 240.938 327.111 242.696C324.48 244.455 322.429 246.953 321.218 249.877C320.007 252.801 319.69 256.018 320.307 259.121C320.925 262.225 322.449 265.076 324.686 267.314C326.924 269.551 329.775 271.075 332.879 271.693C335.982 272.31 339.199 271.993 342.123 270.782C345.047 269.571 347.545 267.52 349.304 264.889C351.062 262.258 352 259.164 352 256C352 251.757 350.314 247.687 347.314 244.686C344.313 241.686 340.243 240 336 240Z" fill="#5B5B5B"/>
</svg>
