<svg width="512" height="512" viewBox="0 0 512 512" fill="none" xmlns="http://www.w3.org/2000/svg">
<path d="M432 128H80C53.4903 128 32 149.49 32 176V400C32 426.51 53.4903 448 80 448H432C458.51 448 480 426.51 480 400V176C480 149.49 458.51 128 432 128Z" stroke="#5B5B5B" stroke-width="32" stroke-linejoin="round"/>
<path d="M320 240V264C320 266.122 319.157 268.157 317.657 269.657C316.157 271.157 314.122 272 312 272H200C197.878 272 195.843 271.157 194.343 269.657C192.843 268.157 192 266.122 192 264V240M144 128V96C144 87.5131 147.371 79.3737 153.373 73.3726C159.374 67.3714 167.513 64 176 64H336C344.487 64 352.626 67.3714 358.627 73.3726C364.629 79.3737 368 87.5131 368 96V128H144ZM480 240H32H480Z" stroke="#5B5B5B" stroke-width="32" stroke-linecap="round" stroke-linejoin="round"/>
</svg>
