<svg width="512" height="512" viewBox="0 0 512 512" fill="none" xmlns="http://www.w3.org/2000/svg">
<path d="M402 168C399.07 208.67 368.9 240 336 240C303.1 240 272.88 208.68 270 168C267 125.69 296.37 96 336 96C375.63 96 405 126.46 402 168Z" stroke="#5B5B5B" stroke-width="32" stroke-linecap="round" stroke-linejoin="round"/>
<path d="M336 304C270.83 304 208.16 336.37 192.46 399.41C190.38 407.75 195.61 416 204.18 416H467.83C476.4 416 481.6 407.75 479.55 399.41C463.85 335.36 401.18 304 336 304Z" stroke="#5B5B5B" stroke-width="32" stroke-miterlimit="10"/>
<path d="M200 185.94C197.66 218.42 173.28 244 147 244C120.72 244 96.3 218.43 94 185.94C91.61 152.15 115.34 128 147 128C178.66 128 202.39 152.77 200 185.94Z" stroke="#5B5B5B" stroke-width="32" stroke-linecap="round" stroke-linejoin="round"/>
<path d="M206 306C187.95 297.73 168.07 294.55 147 294.55C95 294.55 44.9 320.4 32.35 370.75C30.7 377.41 34.88 384 41.72 384H154" stroke="#5B5B5B" stroke-width="32" stroke-miterlimit="10" stroke-linecap="round"/>
</svg>
