<?xml version="1.0" encoding="UTF-8"?>
<svg width="24px" height="22px" viewBox="0 0 24 22" version="1.1" xmlns="http://www.w3.org/2000/svg" xmlns:xlink="http://www.w3.org/1999/xlink">
    <title>841F32E6-9472-493D-B740-771794F2A63B</title>
    <g id="Desktop-Form" stroke="none" stroke-width="1" fill="none" fill-rule="evenodd">
        <g id="2.0---Travel-Assessment-Form---Desktop-Large" transform="translate(-393.000000, -4439.000000)" fill="#FFFFFF" fill-rule="nonzero">
            <g id="Group-33" transform="translate(355.000000, 3228.000000)">
                <g id="Group-13" transform="translate(25.500000, 1171.000000)">
                    <g id="Group-15" transform="translate(0.500000, 0.000000)">
                        <g id="icon/Information" transform="translate(13.000000, 40.000000)">
                            <path d="M11,0 C4.92486775,0 0,4.92486775 0,11 C0,17.0751322 4.92486775,22 11,22 C17.0751322,22 22,17.0751322 22,11 C22,8.08261861 20.8410748,5.28472557 18.7781746,3.22182541 C16.7152744,1.15892524 13.9173814,0 11,0 Z M11,20 C6.02943725,20 2,15.9705627 2,11 C2,6.02943725 6.02943725,2 11,2 C15.9705627,2 20,6.02943725 20,11 C20,15.9705627 15.9705627,20 11,20 Z" id="Shape"></path>
                            <path d="M14.16,14.5 L12.16,14.5 L12.16,8 C12.16,7.44771525 11.7122847,7 11.16,7 L8.82,7 C8.26771525,7 7.82,7.44771525 7.82,8 C7.82,8.55228475 8.26771525,9 8.82,9 L10.18,9 L10.18,14.5 L8.18,14.5 C7.62771525,14.5 7.18,14.9477153 7.18,15.5 C7.18,16.0522847 7.62771525,16.5 8.18,16.5 L14.18,16.5 C14.7322847,16.5 15.18,16.0522847 15.18,15.5 C15.18,14.9477153 14.7322847,14.5 14.18,14.5 L14.16,14.5 Z" id="Path"></path>
                            <path d="M11,6.33 C11.7096642,6.34066001 12.2946374,5.77604175 12.3091071,5.06644495 C12.3235767,4.35684816 11.762107,3.76885232 11.0525981,3.7505734 C10.3430892,3.73229448 9.75208763,4.29059947 9.73,5 C9.71924068,5.34556295 9.84764262,5.68098273 10.0864058,5.93102605 C10.325169,6.18106937 10.6543086,6.3248073 11,6.33 L11,6.33 Z" id="Path"></path>
                        </g>
                    </g>
                </g>
            </g>
        </g>
    </g>
</svg>