<?xml version="1.0" encoding="UTF-8"?>
<svg width="159px" height="45px" viewBox="0 0 159 45" version="1.1" xmlns="http://www.w3.org/2000/svg" xmlns:xlink="http://www.w3.org/1999/xlink">
    <title>4E7044AD-F069-4F49-9D26-B3651133565F</title>
    <g id="Desktop-Form" stroke="none" stroke-width="1" fill="none" fill-rule="evenodd">
        <g id="2.0---Travel-Assessment-Form---Desktop-Large" transform="translate(-1116.000000, -4842.000000)" fill-rule="nonzero">
            <g id="Logo/AB/Color" transform="translate(1116.000000, 4842.000000)">
                <g id="AB-Logo">
                    <rect id="Rectangle" fill="#00AAD2" x="144.580319" y="22.82975" width="14.4204167" height="14.4218889"></rect>
                    <path d="M67.1855972,35.28475 C65.7339861,35.4305 64.1910972,35.5659444 62.5642917,35.6881389 C63.1774722,31.0594722 65.5860278,24.6265972 68.5834722,25.6623056 C70.3140694,26.2615 69.4035,31.6770694 67.1855972,35.28475 M63.3835833,38.4721111 C62.858,38.5538194 62.4236944,38.5464583 62.0784583,38.4824167 C62.2845694,38.3050139 62.4133889,38.0451667 62.4133889,37.736 C62.4133889,37.5401944 62.4200139,37.3355556 62.4310556,37.1235556 C63.2437222,37.0852778 64.5149861,36.9932639 66.0291667,36.8467778 C65.236375,37.7190694 64.3427361,38.3270972 63.3835833,38.4721111 M81.8724861,27.46725 C83.7849028,25.6910139 84.7359583,25.8205694 84.9869722,26.2975694 C85.52875,27.3303333 83.2755139,30.9681944 78.9626389,32.9571667 C79.3336389,31.0005833 80.3656667,28.8673333 81.8724861,27.46725 M152.835069,29.2324444 C152.650306,25.6350694 149.464417,25.049125 149.024958,26.0723194 C148.871847,26.4308056 150.221875,26.3027222 150.227028,28.8430417 C150.230708,33.0462361 145.967153,38.5339444 140.534653,38.5339444 C134.616319,38.5339444 133.089625,33.9303056 132.804014,31.6527778 C132.615569,30.1378611 132.941667,27.950875 130.324792,28.2401667 C128.494819,28.4462778 126.840778,32.0090556 124.520556,35.0094444 C122.530111,37.5850972 121.636472,37.3399722 122.101694,35.1294306 C122.678069,32.3594444 124.990931,25.8588472 127.635042,25.3855278 C128.857722,25.1669028 129.296444,27.3178194 129.858097,25.9714722 C130.423431,24.6229167 129.904472,21.7145417 127.167611,21.7145417 C125.250042,21.7145417 122.949694,23.7476806 121.063778,26.0612778 C119.420042,28.0811667 111.110083,40.3101806 107.624597,37.66975 C105.994111,36.4360278 106.126611,31.4083889 107.151278,25.4849028 C111.28675,23.88975 114.727333,24.413125 116.673611,25.3465139 C117.634236,25.8073194 117.766736,25.738125 117.357458,24.6818056 C116.750167,23.1300833 113.422944,20.703125 108.226,21.8198056 C108.100861,21.8440972 107.978667,21.8779583 107.854264,21.9074028 C108.273111,19.9839444 108.760417,18.0295694 109.292625,16.1296667 C109.779194,14.3895 111.206514,11.3788056 107.480319,10.79875 C106.292972,10.61325 106.797944,11.1888889 106.406333,12.7936111 C105.686417,15.7490972 104.776583,19.5857083 104.117764,23.4363056 C101.054806,25.2000278 98.2031111,28.1466806 96.1132917,32.0245139 C96.4754583,30.2365 97.036375,28.2585694 97.076125,26.9232639 C97.115875,25.5165556 96.1523056,25.2066528 95.7783611,25.0962361 C94.9605417,24.8650972 93.9726806,25.2699583 92.9988056,26.6464861 C90.7139167,29.8632917 87.8202639,34.9527639 83.428625,37.0874861 C80.2780694,38.6193333 78.8963889,37.0764444 78.8190972,34.7039583 C79.4411111,34.5133056 79.9976111,34.3175 80.4679861,34.1055 C86.1772639,31.5754861 88.1375278,27.7594861 86.6866528,25.4385278 C85.310125,23.2301944 81.3741389,23.903 78.2662778,27.1764861 C76.7344306,28.7907778 75.5544444,31.5607639 75.4167917,34.0863611 C74.0991528,34.3712361 72.5842361,34.6244583 70.8926528,34.8526528 C73.5750417,30.5015 73.3431667,24.6207083 69.4196944,23.6291667 C64.8690556,22.4800972 62.5672361,26.8975 61.592625,30.5751111 C61.8929583,26.8975 62.480375,22.4212083 63.3114444,18.2636528 C63.6588889,16.5256944 64.8477083,13.5120556 61.0729306,12.9342083 C59.8738056,12.7487083 60.0593056,13.3059444 60.1594167,14.9290694 C60.2919167,17.1064861 57.8804167,30.2953889 59.1406389,36.0878472 C57.5167778,36.6134306 56.8579583,37.8361111 58.9463056,39.1257778 C60.3854028,40.0113194 63.5528889,40.3057639 66.7527639,38.7304861 C67.9003611,38.1629444 68.8941111,37.3657361 69.7222361,36.4301389 C71.6287639,36.1901667 73.6339306,35.8824722 75.4609583,35.516625 C75.7738056,38.0562083 77.4315278,40.0032222 81.2799167,39.6432639 C86.7514306,39.1346111 91.6112361,32.4102361 93.4463611,29.1713472 C93.1151111,32.6428472 90.8559861,40.227 94.7095278,39.8375972 C96.2192917,39.6844861 95.5619444,39.4430417 95.6554306,38.140125 C95.989625,33.5703472 99.792375,29.6969306 103.553903,27.3237083 C102.900972,32.919625 103.127694,37.9170833 105.665069,39.5034028 C110.33275,42.4206111 116.946708,34.7356111 120.586042,30.0355417 C118.733986,34.2100278 117.682083,39.557875 120.465319,40.3756944 C123.729972,41.3274861 126.304153,35.9126528 129.314847,31.7683472 C129.6645,34.7437083 131.646847,39.8677778 139.644694,39.8677778 C147.758847,39.8699861 153.116264,34.7061667 152.835069,29.2324444 M37.6160139,38.3616944 C35.6542778,37.6513472 32.8577917,36.5118472 29.2066806,34.6472778 C31.2066944,33.9177917 33.74775,32.8489583 36.4249861,31.448875 C36.7856806,34.5037361 37.1772917,36.7260556 37.6160139,38.3616944 M59.2900694,42.4868611 C59.1980556,42.2969444 58.6651111,42.5641528 58.1218611,42.4846528 C56.5752917,42.2564583 54.5421528,40.1438194 53.9267639,36.6723194 C52.8196528,30.4234722 53.4762639,24.2578056 55.3106528,15.0689306 C55.656625,13.3309722 56.8447083,10.3202778 53.0721389,9.73727778 C51.8722778,9.55251389 52.4935556,10.1450833 52.1571528,11.7321389 C50.7062778,18.5757639 45.109625,23.5091806 39.4908889,26.8172639 C38.9027361,18.9813611 39.1419722,10.2805278 40.6171389,4.94445833 C41.8619028,0.443138889 43.3429583,1.26979167 41.5070972,0.323888889 C39.5755417,-0.671333333 37.4989722,0.644097222 35.8199028,3.99634722 C34.1415694,7.347125 26.4013611,25.5563056 14.0427917,37.8456806 C7.718125,44.13575 1.99780556,40.8975972 0.852416667,39.9296111 C-0.0795,39.1427083 -0.424,40.3580278 0.732430556,41.6013194 C5.84766667,47.1177361 13.3199306,43.9524583 16.0398611,41.2332639 C23.5592361,33.7175694 32.3020278,17.5378472 35.8390417,10.6721389 C35.5129444,14.5374583 35.4025278,21.0203889 36.1224444,28.6177917 C32.2954028,30.4823611 28.8643889,31.5776944 27.2456806,32.0046389 C25.493,32.4639722 24.4087083,33.1772639 24.3763194,33.9899306 C24.3417222,34.8791528 25.5187639,35.62925 27.2199167,36.4375 C30.24975,37.8758611 39.120625,42.0665417 41.3061389,43.3378056 C43.1780694,44.4243056 44.0915833,43.5770417 44.645875,42.4044167 C45.3694722,40.87625 43.3827083,39.9929167 41.4599861,39.4180139 C40.7194583,36.8453056 40.127625,33.3848472 39.7338056,29.5710556 C44.2432222,26.7944444 48.6834444,23.0984306 51.2429028,18.4793333 C50.5980694,22.3402361 48.9432917,35.4687778 53.0883333,41.0197917 C54.0018472,42.2432083 56.0187917,43.5807222 57.9878889,43.3819722 C58.9153889,43.2870139 59.3828194,42.6775139 59.2900694,42.4868611" id="Shape" fill="#5F6A72"></path>
                </g>
            </g>
        </g>
    </g>
</svg>