<?xml version="1.0" encoding="UTF-8"?>
<svg width="209px" height="32px" viewBox="0 0 209 32" version="1.1" xmlns="http://www.w3.org/2000/svg" xmlns:xlink="http://www.w3.org/1999/xlink">
    <title>82FB3512-AB1C-4DE2-BFD5-BD50DEC1CC05</title>
    <defs>
        <polygon id="path-1" points="0.06 0 32 0 32 32 0.06 32"></polygon>
    </defs>
    <g id="Desktop-Form" stroke="none" stroke-width="1" fill="none" fill-rule="evenodd">
        <g id="2.0---Travel-Assessment-Form---Desktop-Large" transform="translate(-165.000000, -5.000000)">
            <g id="Header-for-Traveller">
                <g id="Brand-/-Alberta-Compact-Logo" transform="translate(165.000000, 5.000000)">
                    <g id="Brand_Logo">
                        <g id="Brand-/-Compact-Mark">
                            <g id="Alberta_A">
                                <g id="Group-3">
                                    <mask id="mask-2" fill="white">
                                        <use xlink:href="#path-1"></use>
                                    </mask>
                                    <g id="Clip-2"></g>
                                    <path d="M28,16 C28,22.62775 22.62775,28 16,28 C9.373,28 4,22.62775 4,16 C4,9.373 9.373,4 16,4 C22.62775,4 28,9.373 28,16" id="Fill-1" fill="#22A0C0" mask="url(#mask-2)"></path>
                                </g>
                                <path d="M27.996,9.499 C27.458,9.43 27.737,9.681 27.588,10.39 C26.94,13.446 24.44,15.65 21.93,17.128 C21.667,13.627 21.774,9.741 22.433,7.357 C22.989,5.347 23.65,5.716 22.83,5.293 C21.968,4.849 21.04,5.436 20.29,6.934 C19.54,8.431 16.083,16.564 10.563,22.054 C7.737,24.864 5.182,23.417 4.67,22.984 C4.254,22.633 4.1,23.176 4.617,23.731 C6.901,26.195 10.239,24.782 11.455,23.567 C14.814,20.21 18.719,12.982 20.299,9.916 C20.152,11.643 20.104,14.539 20.425,17.932 C18.716,18.765 17.183,19.255 16.46,19.444 C15.677,19.649 15.192,19.969 15.178,20.331 C15.163,20.729 15.689,21.064 16.449,21.425 C17.802,22.067 21.764,23.94 22.74,24.507 C23.577,24.992 23.984,24.613 24.232,24.09 C24.556,23.407 23.668,23.013 22.81,22.756 C22.479,21.606 22.215,20.061 22.038,18.357 C24.053,17.117 26.036,15.466 27.18,13.402 C27.18,13.402 27.803,12.206 27.996,11.115 C28.189,10.023 28.093,9.618 28.093,9.618 C28.093,9.618 28.078,9.509 27.996,9.499 M21.092,22.284 C20.215,21.967 18.966,21.458 17.335,20.625 C18.229,20.3 19.363,19.822 20.559,19.196 C20.721,20.562 20.896,21.554 21.092,22.284" id="Fill-4" fill="#FFFFFE"></path>
                            </g>
                        </g>
                        <path d="M45.67,24.18 C47.452,24.18 48.658,23.622 49.324,22.2 C49.342,23.118 49.396,23.64 49.45,24 L50.656,24 L50.656,17.304 L45.904,17.304 L45.904,18.672 L49.126,18.672 L49.126,18.744 C49.126,21.03 48.604,22.884 45.94,22.884 C43.492,22.884 42.448,20.508 42.448,17.844 C42.448,14.982 43.564,12.714 46.12,12.714 C47.956,12.714 48.784,13.65 49.162,15 L50.674,15 C50.314,12.804 48.838,11.4 46.192,11.4 C42.718,11.4 40.846,14.244 40.846,17.844 C40.846,21.408 42.43,24.18 45.67,24.18 Z M56.578,24.162 C59.512,24.162 60.664,21.93 60.664,19.284 C60.664,16.656 59.278,14.694 56.704,14.694 C53.932,14.694 52.618,16.926 52.618,19.338 C52.618,21.84 53.752,24.162 56.578,24.162 Z M56.668,22.92 C55.03,22.92 54.166,21.408 54.166,19.32 C54.166,17.322 55.012,15.936 56.632,15.936 C58.288,15.936 59.116,17.304 59.116,19.302 C59.116,21.444 58.378,22.92 56.668,22.92 Z M66.208,24 L69.358,14.874 L67.882,14.874 C67.234,16.89 65.65,21.498 65.47,22.578 L65.452,22.578 C65.164,21.3 64.354,18.744 63.13,14.874 L61.528,14.874 L64.57,24 L66.208,24 Z M74.056,24.18 C76.504,24.18 77.404,22.56 77.692,21.426 L76.234,21.426 C76.054,21.894 75.604,22.92 74.128,22.92 C72.526,22.92 71.752,21.552 71.752,19.716 L77.836,19.716 L77.836,19.032 C77.836,16.926 77.008,14.694 74.146,14.694 C71.338,14.694 70.24,17.16 70.24,19.41 C70.24,21.93 71.212,24.18 74.056,24.18 Z M76.36,18.636 L71.788,18.636 C71.878,17.538 72.31,15.9 74.11,15.9 C75.694,15.9 76.324,17.07 76.36,18.636 Z M81.31,24 L81.31,19.518 C81.31,17.538 82.174,16.332 84.226,16.26 L84.226,14.712 C82.714,14.73 81.706,15.594 81.274,16.728 C81.274,15.882 81.274,15.306 81.238,14.874 L79.78,14.874 C79.798,15.324 79.816,16.512 79.816,17.97 L79.816,24 L81.31,24 Z M87.268,24 L87.268,19.122 C87.268,17.214 87.916,16.008 89.536,16.008 C90.904,16.008 91.354,17.016 91.354,18.348 L91.354,24 L92.848,24 L92.848,18.114 C92.848,15.648 91.642,14.694 89.95,14.694 C88.456,14.694 87.628,15.486 87.25,16.296 C87.268,15.918 87.232,15.054 87.196,14.874 L85.738,14.874 C85.756,15.27 85.774,15.828 85.774,17.736 L85.774,24 L87.268,24 Z M96.952,24 L96.952,18.798 C96.952,16.98 97.744,16.008 99.022,16.008 C100.21,16.008 100.66,16.854 100.66,17.988 L100.66,24 L102.136,24 L102.136,18.636 C102.136,17.178 102.73,15.99 104.152,15.99 C105.448,15.99 105.808,16.944 105.808,18.06 L105.808,24 L107.284,24 L107.284,17.808 C107.284,15.414 105.934,14.694 104.548,14.694 C103.162,14.694 102.244,15.432 101.848,16.26 C101.506,15.234 100.714,14.694 99.508,14.694 C98.176,14.694 97.384,15.378 96.952,16.17 C96.952,15.846 96.934,15.126 96.898,14.874 L95.44,14.874 C95.458,15.288 95.476,16.098 95.476,17.718 L95.476,24 L96.952,24 Z M113.116,24.18 C115.564,24.18 116.464,22.56 116.752,21.426 L115.294,21.426 C115.114,21.894 114.664,22.92 113.188,22.92 C111.586,22.92 110.812,21.552 110.812,19.716 L116.896,19.716 L116.896,19.032 C116.896,16.926 116.068,14.694 113.206,14.694 C110.398,14.694 109.3,17.16 109.3,19.41 C109.3,21.93 110.272,24.18 113.116,24.18 Z M115.42,18.636 L110.848,18.636 C110.938,17.538 111.37,15.9 113.17,15.9 C114.754,15.9 115.384,17.07 115.42,18.636 Z M120.37,24 L120.37,19.122 C120.37,17.214 121.018,16.008 122.638,16.008 C124.006,16.008 124.456,17.016 124.456,18.348 L124.456,24 L125.95,24 L125.95,18.114 C125.95,15.648 124.744,14.694 123.052,14.694 C121.558,14.694 120.73,15.486 120.352,16.296 C120.37,15.918 120.334,15.054 120.298,14.874 L118.84,14.874 C118.858,15.27 118.876,15.828 118.876,17.736 L118.876,24 L120.37,24 Z M130.72,24.108 C131.026,24.108 131.566,24.09 131.908,23.964 L131.908,22.83 C131.71,22.866 131.458,22.902 131.206,22.902 C130.432,22.902 130.234,22.578 130.234,21.804 L130.234,16.098 L132.07,16.098 L132.07,14.874 L130.234,14.874 L130.234,12.228 L128.74,12.228 L128.74,14.874 L127.282,14.874 L127.282,16.098 L128.74,16.098 L128.74,22.092 C128.74,23.604 129.388,24.108 130.72,24.108 Z M141.412,24.162 C144.346,24.162 145.498,21.93 145.498,19.284 C145.498,16.656 144.112,14.694 141.538,14.694 C138.766,14.694 137.452,16.926 137.452,19.338 C137.452,21.84 138.586,24.162 141.412,24.162 Z M141.502,22.92 C139.864,22.92 139,21.408 139,19.32 C139,17.322 139.846,15.936 141.466,15.936 C143.122,15.936 143.95,17.304 143.95,19.302 C143.95,21.444 143.212,22.92 141.502,22.92 Z M149.134,24 L149.134,16.098 L150.844,16.098 L150.844,14.874 L149.134,14.874 L149.134,13.668 C149.134,12.588 149.44,12.048 150.25,12.048 C150.556,12.048 150.808,12.084 150.988,12.138 L150.988,10.86 C150.772,10.788 150.412,10.752 150.124,10.752 C148.216,10.752 147.658,12.12 147.658,13.74 L147.658,14.874 L146.254,14.874 L146.254,16.098 L147.658,16.098 L147.658,24 L149.134,24 Z M156.892,24 L158.116,20.22 L162.67,20.22 L163.93,24 L165.568,24 L161.356,11.58 L159.394,11.58 C158.422,14.514 156.226,21.408 155.362,24 L156.892,24 Z M162.31,18.888 L158.458,18.888 C159.322,16.224 159.97,14.316 160.312,12.84 L160.348,12.84 C160.582,13.83 161.248,15.684 162.31,18.888 Z M168.628,24 L168.628,10.896 L167.134,10.896 L167.134,24 L168.628,24 Z M175.198,24.162 C177.808,24.162 178.978,21.93 178.978,19.158 C178.978,16.512 177.682,14.694 175.468,14.694 C173.974,14.694 173.128,15.414 172.732,16.134 L172.732,10.896 L171.238,10.896 L171.238,21.408 C171.238,22.542 171.22,23.496 171.202,24 L172.66,24 C172.696,23.622 172.732,23.208 172.714,22.848 C173.056,23.55 173.794,24.162 175.198,24.162 Z M175.054,22.866 C173.164,22.866 172.642,21.552 172.642,19.32 C172.642,17.16 173.29,15.99 175.108,15.99 C176.674,15.99 177.448,17.286 177.448,19.212 C177.448,21.354 176.692,22.866 175.054,22.866 Z M184.18,24.18 C186.628,24.18 187.528,22.56 187.816,21.426 L186.358,21.426 C186.178,21.894 185.728,22.92 184.252,22.92 C182.65,22.92 181.876,21.552 181.876,19.716 L187.96,19.716 L187.96,19.032 C187.96,16.926 187.132,14.694 184.27,14.694 C181.462,14.694 180.364,17.16 180.364,19.41 C180.364,21.93 181.336,24.18 184.18,24.18 Z M186.484,18.636 L181.912,18.636 C182.002,17.538 182.434,15.9 184.234,15.9 C185.818,15.9 186.448,17.07 186.484,18.636 Z M191.434,24 L191.434,19.518 C191.434,17.538 192.298,16.332 194.35,16.26 L194.35,14.712 C192.838,14.73 191.83,15.594 191.398,16.728 C191.398,15.882 191.398,15.306 191.362,14.874 L189.904,14.874 C189.922,15.324 189.94,16.512 189.94,17.97 L189.94,24 L191.434,24 Z M198.04,24.108 C198.346,24.108 198.886,24.09 199.228,23.964 L199.228,22.83 C199.03,22.866 198.778,22.902 198.526,22.902 C197.752,22.902 197.554,22.578 197.554,21.804 L197.554,16.098 L199.39,16.098 L199.39,14.874 L197.554,14.874 L197.554,12.228 L196.06,12.228 L196.06,14.874 L194.602,14.874 L194.602,16.098 L196.06,16.098 L196.06,22.092 C196.06,23.604 196.708,24.108 198.04,24.108 Z M203.26,24.162 C204.754,24.162 205.672,23.514 206.032,22.596 C206.032,23.19 206.104,23.676 206.158,24 L207.508,24 C207.436,23.514 207.382,22.596 207.382,21.966 L207.382,17.538 C207.382,15.468 206.068,14.694 204.16,14.694 C201.73,14.694 200.848,15.936 200.722,17.466 L202.18,17.466 C202.324,16.458 202.792,15.846 204.106,15.846 C205.654,15.846 205.906,16.746 205.906,17.61 L205.906,18.492 L204.502,18.492 C201.244,18.492 200.362,20.022 200.362,21.39 C200.362,22.65 201.028,24.162 203.26,24.162 Z M203.566,22.938 C202.414,22.938 201.874,22.2 201.874,21.3 C201.874,20.472 202.288,19.572 204.502,19.572 L205.942,19.572 L205.942,19.77 C205.942,21.714 205.366,22.938 203.566,22.938 Z" id="GovernmentofAlberta" fill="#333333" fill-rule="nonzero"></path>
                    </g>
                </g>
            </g>
        </g>
    </g>
</svg>